<?xml version="1.0" encoding="UTF-8"?>
<svg width="19px" height="18px" viewBox="0 0 19 18" version="1.1" xmlns="http://www.w3.org/2000/svg" xmlns:xlink="http://www.w3.org/1999/xlink">
    <!-- Generator: Sketch 42 (36781) - http://www.bohemiancoding.com/sketch -->
    <title>hand-point</title>
    <desc>Created with Sketch.</desc>
    <defs></defs>
    <g id="Page-1" stroke="none" stroke-width="1" fill="none" fill-rule="evenodd">
        <g id="Full-Color" transform="translate(-153.000000, -250.000000)">
            <g id="hand-point" transform="translate(152.000000, 250.000000)">
                <path d="M10.5,12.5031 L10.5,8.0031 C10.5,7.1731 11.17,6.5031 12,6.5031 C12.83,6.5031 13.5,7.1731 13.5,8.0031 L13.5,12.5031 L13.5,9.0031 C13.5,8.1731 14.17,7.5031 15,7.5031 C15.83,7.5031 16.5,8.1731 16.5,9.0031 L16.5,12.5031 L16.5,11.0031 C16.5,10.1731 17.17,9.5031 18,9.5031 C18.83,9.5031 19.5,10.1731 19.5,11.0031 L19.5,17.7231 C19.5,21.4731 16.47,24.5031 12.72,24.5031 C10.38,24.5031 8.21,23.3231 7,21.5231 L1.77,13.8931 C1.29,13.2131 1.46,12.2531 2.15,11.7731 C2.41,11.5931 2.71,11.5031 3.01,11.5031 C3.49,11.5031 3.96,11.7231 4.26,12.1531 L5.94,14.5531 L6.22,14.9431 C6.35,15.0831 6.54,15.1631 6.75,15.1631 C7.16,15.1631 7.5,14.8231 7.5,14.4131 L7.5,13.0031 L7.5,2.0031 C7.5,1.1731 8.17,0.5031 9,0.5031 C9.83,0.5031 10.5,1.1731 10.5,2.0031 L10.5,12.5031 Z" id="Fill-82" fill="#FFCC00"></path>
                <path d="M12,7.0031 C12.551,7.0031 13,7.4511 13,8.0031 L13,12.5031 C13,12.7791 13.224,13.0031 13.5,13.0031 C13.776,13.0031 14,12.7791 14,12.5031 L14,9.0031 C14,8.4511 14.449,8.0031 15,8.0031 C15.551,8.0031 16,8.4511 16,9.0031 L16,12.5031 C16,12.7791 16.224,13.0031 16.5,13.0031 C16.776,13.0031 17,12.7791 17,12.5031 L17,11.0031 C17,10.4511 17.449,10.0031 18,10.0031 C18.551,10.0031 19,10.4511 19,11.0031 L19,17.7231 C19,21.1861 16.183,24.0031 12.72,24.0031 C10.591,24.0031 8.559,22.9451 7.413,21.2401 L2.178,13.6051 C2.024,13.3861 1.966,13.1181 2.013,12.8491 C2.061,12.5751 2.211,12.3391 2.434,12.1841 C2.605,12.0651 2.805,12.0031 3.01,12.0031 C3.351,12.0031 3.656,12.1621 3.85,12.4401 L5.534,14.8441 L5.854,15.2841 C6.078,15.5241 6.405,15.6631 6.75,15.6631 C7.439,15.6631 8,15.1031 8,14.4131 L8,2.0031 C8,1.4511 8.449,1.0031 9,1.0031 C9.551,1.0031 10,1.4511 10,2.0031 L10,12.5031 C10,12.7791 10.224,13.0031 10.5,13.0031 C10.776,13.0031 11,12.7791 11,12.5031 L11,8.0031 C11,7.4511 11.449,7.0031 12,7.0031 M9,0.0031 C7.897,0.0031 7,0.9001 7,2.0031 L7,14.4131 C7,14.5461 6.883,14.6631 6.75,14.6631 C6.68,14.6631 6.62,14.6381 6.626,14.6521 L4.67,11.8671 C4.055,10.9841 2.765,10.7391 1.864,11.3621 C1.419,11.6721 1.123,12.1391 1.028,12.6761 C0.935,13.2091 1.053,13.7441 1.357,14.1751 L6.585,21.8021 C7.912,23.7761 10.263,25.0031 12.72,25.0031 C16.734,25.0031 20,21.7371 20,17.7231 L20,11.0031 C20,9.9001 19.103,9.0031 18,9.0031 C17.636,9.0031 17.294,9.1011 17,9.2721 L17,9.0031 C17,7.9001 16.103,7.0031 15,7.0031 C14.588,7.0031 14.206,7.1281 13.888,7.3421 C13.614,6.5631 12.871,6.0031 12,6.0031 C11.636,6.0031 11.294,6.1011 11,6.2721 L11,2.0031 C11,0.9001 10.103,0.0031 9,0.0031" id="Fill-214" fill="#000000"></path>
                <path d="M19.5,15.2228 C19.224,15.2228 19,15.4468 19,15.7228 C19,19.1858 16.183,22.0028 12.72,22.0028 C10.591,22.0028 8.559,20.9458 7.412,19.2408 L2.28,11.7538 C2.192,11.6248 2.05,11.5448 1.895,11.5368 C1.738,11.5238 1.589,11.5928 1.488,11.7108 C0.885,12.4178 0.833,13.4328 1.357,14.1748 L6.585,21.8018 C7.912,23.7768 10.263,25.0028 12.72,25.0028 C16.734,25.0028 20,21.7378 20,17.7228 L20,15.7228 C20,15.4468 19.776,15.2228 19.5,15.2228" id="Fill-352" fill="#000000" opacity="0.119999997"></path>
            </g>
        </g>
    </g>
</svg>