<svg xmlns="http://www.w3.org/2000/svg" width="33.504" height="33.488" viewBox="0 0 33.504 33.488">
    <defs>
        <style>
            .cls-1{fill:#518ff5}.cls-1,.cls-2,.cls-3,.cls-4{fill-rule:evenodd}.cls-2{fill:url(#linear-gradient)}.cls-3{fill:#4758b8}.cls-4,.cls-5{fill:#fff}
        </style>
        <linearGradient id="linear-gradient" x1="1" x2="0" y1="1" gradientUnits="objectBoundingBox">
            <stop offset="0" stop-color="#4385f5"/>
            <stop offset="1" stop-color="#3569d3"/>
        </linearGradient>
    </defs>
    <g id="elgoogMerchantCenter" transform="translate(-.2 -.2)">
        <path id="Path_1003" d="M.2 98.333h33.488v22.674a2.79 2.79 0 0 1-2.79 2.79H2.99a2.791 2.791 0 0 1-2.79-2.79z" class="cls-1" data-name="Path 1003" transform="translate(0 -90.11)"/>
        <path id="Path_1004" d="M144.713 204.9l8.7-7.952 12.987 12.976-.006 1.638a2.8 2.8 0 0 1-2.8 2.791H154.2z" class="cls-2" data-name="Path 1004" transform="translate(-132.698 -180.665)"/>
        <path id="Path_1005" d="M.2 2.991A2.79 2.79 0 0 1 2.99.2H30.9a2.79 2.79 0 0 1 2.79 2.791v5.232H.2z" class="cls-3" data-name="Path 1005"/>
        <path id="Path_1006" d="M137 27.544h-3.314a1.221 1.221 0 0 0 0 2.442h9.419a1.221 1.221 0 0 0 0-2.442h-3.314V27.2a1.4 1.4 0 1 0-2.791 0z" class="cls-4" data-name="Path 1006" transform="translate(-121.453 -23.507)"/>
        <g id="Group_72" data-name="Group 72" transform="translate(8.441 12.365)">
            <path id="Path_1007" d="M103.984 153.251a1.267 1.267 0 1 1 1.267-1.267 1.267 1.267 0 0 1-1.267 1.267zm13.52 3.894l-7.652-7.652a1.69 1.69 0 0 0-1.2-.493H102.7a1.695 1.695 0 0 0-1.7 1.7v5.952a1.663 1.663 0 0 0 .5 1.2l7.644 7.652a1.733 1.733 0 0 0 1.207.5 1.7 1.7 0 0 0 1.2-.5l5.952-5.952a1.663 1.663 0 0 0 .5-1.2 1.7 1.7 0 0 0-.503-1.206z" data-name="Path 1007" transform="translate(-101 -149)"/>
            <path id="Path_1008" d="M103.984 153.251a1.267 1.267 0 1 1 1.267-1.267 1.267 1.267 0 0 1-1.267 1.267zm13.52 3.894l-7.652-7.652a1.69 1.69 0 0 0-1.2-.493H102.7a1.695 1.695 0 0 0-1.7 1.7v5.952a1.663 1.663 0 0 0 .5 1.2l7.644 7.652a1.733 1.733 0 0 0 1.207.5 1.7 1.7 0 0 0 1.2-.5l5.952-5.952a1.663 1.663 0 0 0 .5-1.2 1.7 1.7 0 0 0-.503-1.206z" class="cls-5" data-name="Path 1008" transform="translate(-101 -149)"/>
        </g>
    </g>
</svg>
