<?xml version="1.0" encoding="UTF-8"?>
<svg width="4733" height="3576.1" enable-background="new" version="1.1" viewBox="0 0 4733 3576.1" xmlns="http://www.w3.org/2000/svg" xmlns:cc="http://creativecommons.org/ns#" xmlns:dc="http://purl.org/dc/elements/1.1/" xmlns:rdf="http://www.w3.org/1999/02/22-rdf-syntax-ns#">
 <metadata>
  <rdf:RDF>
   <cc:Work rdf:about="">
    <dc:format>image/svg+xml</dc:format>
    <dc:type rdf:resource="http://purl.org/dc/dcmitype/StillImage"/>
    <dc:title/>
   </cc:Work>
  </rdf:RDF>
 </metadata>
 <g transform="translate(385.56 1446.3)" fill="none" opacity=".3" stroke="#d48f2a" stroke-linecap="round" stroke-linejoin="round" stroke-width="12">
  <g transform="translate(1737 66.323)" style="">
   <path d="m939.89-1023.9-139.47 80.523-139.47-80.523v-161.05l139.47-80.523 139.47 80.523z" opacity="1"/>
   <path d="m1217.8-1023.9-139.47 80.523-139.47-80.523v-161.05l139.47-80.523 139.47 80.523z" opacity="1"/>
   <path d="m1078.9-782.39-139.47 80.523-139.47-80.523v-161.05l139.47-80.523 139.47 80.523z" opacity="1"/>
   <path d="m1356.8-782.39-139.47 80.523-139.47-80.523v-161.05l139.47-80.523 139.47 80.523z" opacity="1"/>
   <path d="m1356.8-1265-139.47 80.523-139.47-80.523v-161.05l139.47-80.523 139.47 80.523z" opacity="1"/>
   <path d="m1634.6-1265-139.47 80.523-139.47-80.523v-161.05l139.47-80.523 139.47 80.523z" opacity="1"/>
   <path d="m1495.8-1023.5-139.47 80.523-139.47-80.523v-161.05l139.47-80.523 139.47 80.523z" opacity="1"/>
   <path d="m1773.6-1023.5-139.47 80.523-139.47-80.523v-161.05l139.47-80.523 139.47 80.523z" opacity="1"/>
   <path d="m1913.1-1265.1-139.47 80.523-139.47-80.523v-161.05l139.47-80.523 139.47 80.523z" opacity="1"/>
   <path d="m-1317.2-876.81-139.47 80.523-139.47-80.523v-161.05l139.47-80.523 139.47 80.523z" opacity="1"/>
   <path d="m-1039.3-876.81-139.47 80.523-139.47-80.523v-161.05l139.47-80.523 139.47 80.523z" opacity="1"/>
   <path d="m-1178.2-635.31-139.47 80.523-139.47-80.523v-161.05l139.47-80.523 139.47 80.523z" opacity="1"/>
   <path d="m-900.3-635.31-139.47 80.523-139.47-80.523v-161.05l139.47-80.523 139.47 80.523z" opacity="1"/>
   <path d="m508.23-320.32-139.47 80.523-139.47-80.523v-161.05l139.47-80.523 139.47 80.523z" opacity="1"/>
   <path d="m786.12-320.32-139.47 80.523-139.47-80.523v-161.05l139.47-80.523 139.47 80.523z" opacity="1"/>
   <path d="m647.23-78.821-139.47 80.523-139.47-80.523v-161.05l139.47-80.523 139.47 80.523z" opacity="1"/>
   <path d="m925.12-78.821-139.47 80.523-139.47-80.523v-161.05l139.47-80.523 139.47 80.523z" opacity="1"/>
   <path d="m228.47-320.32-139.47 80.523-139.47-80.523 1e-6 -161.05 139.47-80.523 139.47 80.523z" opacity="1"/>
  </g>
  <path transform="scale(-1)" d="m-4062.5-860.39-139.47 80.523-139.47-80.523v-161.05l139.47-80.523 139.47 80.523z" opacity="1"/>
  <path transform="scale(-1)" d="m-3784.6-860.39-139.47 80.523-139.47-80.523v-161.05l139.47-80.523 139.47 80.523z" opacity="1"/>
  <path transform="scale(-1)" d="m-3923.5-618.89-139.47 80.523-139.47-80.523v-161.05l139.47-80.523 139.47 80.523z" opacity="1"/>
  <path transform="scale(-1)" d="m-3645.6-618.89-139.47 80.523-139.47-80.523v-161.05l139.47-80.523 139.47 80.523z" opacity="1"/>
  <path transform="scale(-1)" d="m-3228.2-1343.1-139.47 80.523-139.47-80.523v-161.05l139.47-80.523 139.47 80.523z" opacity="1"/>
  <path transform="scale(-1)" d="m-3367.7-1101.5-139.47 80.523-139.47-80.523v-161.05l139.47-80.523 139.47 80.523z" opacity="1"/>
  <path transform="scale(-1)" d="m-3506.6-860.02-139.47 80.523-139.47-80.523v-161.05l139.47-80.523 139.47 80.523z" opacity="1"/>
  <path transform="scale(-1)" d="m-3228.7-860.02-139.47 80.523-139.47-80.523v-161.05l139.47-80.523 139.47 80.523z" opacity="1"/>
  <path transform="scale(-1)" d="m-3925.4-1101.5-139.47 80.523-139.47-80.523v-161.05l139.47-80.523 139.47 80.523z" opacity="1"/>
  <g transform="translate(-627.56 1186.4)" style="">
   <path d="m526.94-571.34-139.47 80.523-139.47-80.523v-161.05l139.47-80.523 139.47 80.523z" opacity="1"/>
   <path d="m804.83-571.34-139.47 80.523-139.47-80.523v-161.05l139.47-80.523 139.47 80.523z" opacity="1"/>
   <path d="m943.83-329.84-139.47 80.523-139.47-80.523v-161.05l139.47-80.523 139.47 80.523z" opacity="1"/>
   <path d="m943.8-812.47-139.47 80.523-139.47-80.523v-161.05l139.47-80.523 139.47 80.523z" opacity="1"/>
   <path d="m1082.8-570.97-139.47 80.523-139.47-80.523v-161.05l139.47-80.523 139.47 80.523z" opacity="1"/>
   <path d="m1360.7-570.97-139.47 80.523-139.47-80.523v-161.05l139.47-80.523 139.47 80.523z" opacity="1"/>
   <path d="m664.05-812.47-139.47 80.523-139.47-80.523v-161.05l139.47-80.523 139.47 80.523z" opacity="1"/>
  </g>
  <path transform="scale(-1)" d="m-1777.1-1641-139.47 80.523-139.47-80.523v-161.05l139.47-80.523 139.47 80.523z" opacity="1"/>
  <path transform="scale(-1)" d="m-1499.2-1641-139.47 80.523-139.47-80.523v-161.05l139.47-80.523 139.47 80.523z" opacity="1"/>
  <path transform="scale(-1)" d="m-1638.1-1399.5-139.47 80.523-139.47-80.523v-161.05l139.47-80.523 139.47 80.523z" opacity="1"/>
  <path transform="scale(-1)" d="m-1360.2-1399.5-139.47 80.523-139.47-80.523v-161.05l139.47-80.523 139.47 80.523z" opacity="1"/>
  <path transform="scale(-1)" d="m-1638.1-916.4-139.47 80.523-139.47-80.523v-161.05l139.47-80.523 139.47 80.523z" opacity="1"/>
  <path transform="scale(-1)" d="m-1082.3-1882.2-139.47 80.523-139.47-80.523v-161.05l139.47-80.523 139.47 80.523z" opacity="1"/>
  <path transform="scale(-1)" d="m-1221.2-1640.7-139.47 80.523-139.47-80.523v-161.05l139.47-80.523 139.47 80.523z" opacity="1"/>
  <path transform="scale(-1)" d="m-943.34-1640.7-139.47 80.523-139.47-80.523v-161.05l139.47-80.523 139.47 80.523z" opacity="1"/>
  <path transform="scale(-1)" d="m-1498.6-1158-139.47 80.523-139.47-80.523v-161.05l139.47-80.523 139.47 80.523z" opacity="1"/>
 </g>
</svg>
