<?xml version="1.0" encoding="UTF-8" standalone="no"?>
<svg
   xmlns:dc="http://purl.org/dc/elements/1.1/"
   xmlns:cc="http://creativecommons.org/ns#"
   xmlns:rdf="http://www.w3.org/1999/02/22-rdf-syntax-ns#"
   xmlns:svg="http://www.w3.org/2000/svg"
   xmlns="http://www.w3.org/2000/svg"
   xmlns:sodipodi="http://sodipodi.sourceforge.net/DTD/sodipodi-0.dtd"
   xmlns:inkscape="http://www.inkscape.org/namespaces/inkscape"
   width="1126.72"
   height="1299.8518"
   version="1.1"
   viewBox="0 0 1126.72 1299.8518"
   id="svg96"
   sodipodi:docname="icon_honeycombs.svg"
   style="enable-background:new"
   inkscape:version="0.92.2 (5c3e80d, 2017-08-06)"
   inkscape:export-filename="C:\Users\dcis\Dropbox\HeraldBee\web-app\src\images\icon_honeycombs.png"
   inkscape:export-xdpi="15.361752"
   inkscape:export-ydpi="15.361752">
  <defs
     id="defs100" />
  <sodipodi:namedview
     pagecolor="#ffffff"
     bordercolor="#666666"
     borderopacity="1"
     objecttolerance="10"
     gridtolerance="10"
     guidetolerance="10"
     inkscape:pageopacity="0"
     inkscape:pageshadow="2"
     inkscape:window-width="1920"
     inkscape:window-height="1017"
     id="namedview98"
     showgrid="false"
     fit-margin-top="0"
     fit-margin-left="0"
     fit-margin-right="0"
     fit-margin-bottom="0"
     inkscape:zoom="0.26397471"
     inkscape:cx="-320.36571"
     inkscape:cy="746.77564"
     inkscape:window-x="1912"
     inkscape:window-y="-8"
     inkscape:window-maximized="1"
     inkscape:current-layer="g94" />
  <metadata
     id="metadata2">
    <rdf:RDF>
      <cc:Work
         rdf:about="">
        <dc:format>image/svg+xml</dc:format>
        <dc:type
           rdf:resource="http://purl.org/dc/dcmitype/StillImage" />
        <dc:title></dc:title>
      </cc:Work>
    </rdf:RDF>
  </metadata>
  <g
     transform="translate(-3360.66,-290.79409)"
     id="g94"
     style="opacity:1;fill:none;stroke:#d48f2a;stroke-width:12;stroke-linecap:round;stroke-linejoin:round">
    <g
       transform="translate(1737,66.323)"
       id="g40" />
    <path
       transform="scale(-1)"
       d="m -4062.5,-860.39 -139.47,80.523 -139.47,-80.523 v -161.05 l 139.47,-80.523 139.47,80.523 z"
       id="path42"
       inkscape:connector-curvature="0"
       style="opacity:1;stroke:#e5ba7b;stroke-opacity:1" />
    <path
       transform="scale(-1)"
       d="m -3784.6,-860.39 -139.47,80.523 -139.47,-80.523 v -161.05 l 139.47,-80.523 139.47,80.523 z"
       id="path44"
       inkscape:connector-curvature="0"
       style="opacity:1;stroke:#e5ba7b;stroke-opacity:1" />
    <path
       transform="scale(-1)"
       d="m -3923.5,-618.89 -139.47,80.523 -139.47,-80.523 v -161.05 l 139.47,-80.523 139.47,80.523 z"
       id="path46"
       inkscape:connector-curvature="0"
       style="opacity:1;stroke:#e5ba7b;stroke-opacity:1" />
    <path
       transform="scale(-1)"
       d="m -3645.6,-618.89 -139.47,80.523 -139.47,-80.523 v -161.05 l 139.47,-80.523 139.47,80.523 z"
       id="path48"
       inkscape:connector-curvature="0"
       style="opacity:1;stroke:#e5ba7b;stroke-opacity:1" />
    <path
       d="m 3644.9066,1101.5996 139.47,-80.523 139.47,80.523 v 161.05 l -139.47,80.523 -139.47,-80.523 z"
       id="path50"
       inkscape:connector-curvature="0"
       style="opacity:1;stroke:#e5ba7b;stroke-opacity:1" />
    <path
       transform="scale(-1)"
       d="m -3367.7,-1101.5 -139.47,80.523 -139.47,-80.523 v -161.05 l 139.47,-80.523 139.47,80.523 z"
       id="path52"
       inkscape:connector-curvature="0"
       style="opacity:1;stroke:#e5ba7b;stroke-opacity:1" />
    <path
       transform="scale(-1)"
       d="m -3506.6,-860.02 -139.47,80.523 -139.47,-80.523 v -161.05 l 139.47,-80.523 139.47,80.523 z"
       id="path54"
       inkscape:connector-curvature="0"
       style="opacity:1;stroke:#e5ba7b;stroke-opacity:1" />
    <path
       d="m 3366.66,618.89 139.47,-80.523 139.47,80.523 v 161.05 l -139.47,80.523 -139.47,-80.523 z"
       id="path56"
       inkscape:connector-curvature="0"
       style="opacity:1;stroke:#e5ba7b;stroke-opacity:1" />
    <path
       transform="scale(-1)"
       d="m -3925.4,-1101.5 -139.47,80.523 -139.47,-80.523 v -161.05 l 139.47,-80.523 139.47,80.523 z"
       id="path58"
       inkscape:connector-curvature="0"
       style="opacity:1;stroke:#e5ba7b;stroke-opacity:1" />
    <path
       style="opacity:1;stroke:#e5ba7b;stroke-opacity:1"
       inkscape:connector-curvature="0"
       id="path954"
       d="m 3785.93,1343.073 139.47,-80.523 139.47,80.523 v 161.05 l -139.47,80.523 -139.47,-80.523 z" />
    <path
       d="m 4201.97,1101.963 139.47,-80.523 139.47,80.523 v 161.05 l -139.47,80.523 -139.47,-80.523 z"
       id="path956"
       inkscape:connector-curvature="0"
       style="opacity:1;stroke:#e5ba7b;stroke-opacity:1" />
    <path
       style="opacity:1;stroke:#e5ba7b;stroke-opacity:1"
       inkscape:connector-curvature="0"
       id="path958"
       d="m 4202.44,618.89 139.47,-80.523 139.47,80.523 v 161.05 l -139.47,80.523 -139.47,-80.523 z" />
    <path
       d="m 3785.07,377.317 139.47,-80.523 139.47,80.523 v 161.05 l -139.47,80.523 -139.47,-80.523 z"
       id="path960"
       inkscape:connector-curvature="0"
       style="opacity:1;stroke:#e5ba7b;stroke-opacity:1" />
  </g>
</svg>
