<?xml version="1.0" encoding="UTF-8"?>
<svg width="630.59" height="478.44" enable-background="new" version="1.1" viewBox="0 0 630.59 478.44" xmlns="http://www.w3.org/2000/svg" xmlns:cc="http://creativecommons.org/ns#" xmlns:dc="http://purl.org/dc/elements/1.1/" xmlns:rdf="http://www.w3.org/1999/02/22-rdf-syntax-ns#">
 <defs>
  <filter color-interpolation-filters="sRGB">
   <feBlend in2="BackgroundImage" mode="hard-light"/>
  </filter>
 </defs>
 <metadata>
  <rdf:RDF>
   <cc:Work rdf:about="">
    <dc:format>image/svg+xml</dc:format>
    <dc:type rdf:resource="http://purl.org/dc/dcmitype/StillImage"/>
    <dc:title/>
   </cc:Work>
  </rdf:RDF>
 </metadata>
 <g transform="translate(-1442.8 -135.17)">
  <g stroke="#54281f">
   <g transform="matrix(1.0492 -.20394 .20394 1.0492 1862.7 29.393)" enable-background="new" fill="#f0f0f0" opacity=".99" stroke-width="8">
    <path d="m-360.6 282.17s-117.57 48.398-111.15 119.88c1.3546 15.086 40.34 26.923 72.908 14.201 37.074-14.482 16.227-59.34 24.751-88.894 4.3562-15.103 26.754-47.33 13.487-45.186z"/>
    <path d="m36.483 359.36s90.874 88.914 58.146 152.79c-6.9072 13.48-47.488 9.8514-72.919-14.145-28.949-27.316 7.1841-61.098 10.352-91.693 1.6186-15.635-7.076-53.906 4.4216-46.948z"/>
   </g>
   <path d="m1564.3 341.24a200.82 200.82 0 0 0-5.7385 31.805c174.62 118.99 366.67 21.588 399.18-2.6433a200.82 200.82 0 0 0-18.129-62.942c-173 116.83-333.38 44.257-367.9 11.802a200.82 200.82 0 0 0-7.413 21.979zm-3.5148 87.143a200.82 200.82 0 0 0 28.035 72.132c151.34 101.08 278.86 46.231 324.83 19.641a200.82 200.82 0 0 0 38.599-74.966 200.82 200.82 0 0 0 0.585-2.5392c-174.08 102.2-369.55 17.441-392.05-14.268zm32.593 79.417a200.82 200.82 0 0 0 0.3691 0.53237c-0.1234-0.17738-0.2462-0.35481-0.3691-0.53237z" enable-background="new" fill="#54281f" stroke-width="8.5503"/>
   <path d="m1571.5 319.06c34.075 32.368 255 100.6 368.36-11.755-25.19-53.368-72.549-92.977-129.53-108.33-47.609-12.72-98.231-7.5204-142.26 14.617-44.027 22.138-78.392 59.67-96.574 105.47zm-13.127 53.856c-2.1099 15.994-0.7717 38.874 1.7923 54.535 19.217 30.948 217.07 118.52 392.96 15.037 5.9884-23.596 7.6427-48.083 4.8824-72.271-31.798 23.93-224.53 122.19-399.64 2.6987zm30.014 127.31c26.903 42.875 68.985 74.028 117.85 87.242 76.58 20.406 158-6.0656 207.94-67.606-45.579 26.503-173.69 82.216-325.79-19.636z" enable-background="new" fill="#ffd742" stroke-width="8.5503"/>
  </g>
  <g transform="rotate(124.76 1862.9 156.24)" fill="#54281f">
   <path d="m1887 92.121a19.265 13.804 83.332 0 1 15.947 17.531 19.265 13.804 83.332 0 1-11.473 20.737 19.265 13.804 83.332 0 1-15.948-17.531 19.265 13.804 83.332 0 1 11.473-20.737z" enable-background="new"/>
   <path d="m1876.4 114.22c-0.1307 0.48779-0.1362 1.0012-0.027 1.4948 0 0 8.7521 41.178 58.555 62.098 2.4514 1.0368 16.233 4.6449 17.543 3.1553 0.7993-0.90909-5.1187-4.9215-15.06-9.0684-47.32-19.877-54.758-57.478-54.758-57.478-0.6417-3.3609-5.3969-3.5145-6.2542-0.20167z" color="#000000" color-rendering="auto" dominant-baseline="auto" enable-background="accumulate" image-rendering="auto" shape-rendering="auto" solid-color="#000000" style="font-feature-settings:normal;font-variant-alternates:normal;font-variant-caps:normal;font-variant-ligatures:normal;font-variant-numeric:normal;font-variant-position:normal;isolation:auto;mix-blend-mode:normal;shape-padding:0;text-decoration-color:#000000;text-decoration-line:none;text-decoration-style:solid;text-indent:0;text-orientation:mixed;text-transform:none;white-space:normal"/>
  </g>
  <g transform="matrix(.47467 .88016 .88016 -.47467 615.02 -1402.5)" fill="#54281f">
   <path d="m1883.4 105.78a19.265 13.804 83.332 0 1 15.947 17.531 19.265 13.804 83.332 0 1-11.473 20.737 19.265 13.804 83.332 0 1-15.948-17.531 19.265 13.804 83.332 0 1 11.473-20.737z" enable-background="new"/>
   <path d="m1872.8 127.88c-0.1307 0.48779-0.1362 1.0012-0.027 1.4948 0 0 8.7521 41.178 58.555 62.098 2.4514 1.0368 16.233 4.6449 17.543 3.1553 0.7993-0.90909-5.1187-4.9215-15.06-9.0684-47.32-19.877-54.758-57.478-54.758-57.478-0.6417-3.3609-5.3969-3.5145-6.2542-0.20167z" color="#000000" color-rendering="auto" dominant-baseline="auto" enable-background="accumulate" image-rendering="auto" shape-rendering="auto" solid-color="#000000" style="font-feature-settings:normal;font-variant-alternates:normal;font-variant-caps:normal;font-variant-ligatures:normal;font-variant-numeric:normal;font-variant-position:normal;isolation:auto;mix-blend-mode:normal;shape-padding:0;text-decoration-color:#000000;text-decoration-line:none;text-decoration-style:solid;text-indent:0;text-orientation:mixed;text-transform:none;white-space:normal"/>
  </g>
  <g transform="translate(2.5 -.5)" fill="#54281f">
   <path d="m1798.9 279.59c10.758 12.956 32.577 17.318 24.418 19.522-8.1588 2.2043-24.902-12.718-33.787-23.061-7.367-8.5767-22.834-28.375-14.676-30.58 12.888 21.22 24.045 34.118 24.045 34.118z" enable-background="new"/>
   <path d="m1789.7 279.59c-10.758 12.956-32.577 17.318-24.418 19.522 8.1587 2.2043 24.902-12.718 33.787-23.061 7.3669-8.5767 22.834-28.375 14.676-30.58-12.888 21.22-24.045 34.118-24.045 34.118z" enable-background="new"/>
  </g>
  <g transform="matrix(1.4104 0 0 1.4104 -807.91 -111.74)" fill="#54281f">
   <path d="m1784 277.6c7.6275 9.1862 23.097 12.279 17.313 13.842-5.7846 1.5629-17.656-9.0169-23.955-16.351-5.2232-6.0809-16.19-20.118-10.405-21.681 9.1379 15.045 17.048 24.19 17.048 24.19z" enable-background="new"/>
   <path d="m1777.5 277.6c-7.6275 9.1862-23.097 12.279-17.313 13.842 5.7846 1.5629 17.656-9.0169 23.955-16.351 5.2232-6.0809 16.19-20.118 10.405-21.681-9.1379 15.045-17.048 24.19-17.048 24.19z" enable-background="new"/>
  </g>
 </g>
 <g transform="translate(-912.5 -46.65)">
  <text x="1239.8926" y="235.88365" fill="#000000" font-family="sans-serif" font-size="40px" letter-spacing="0px" word-spacing="0px" style="line-height:1.25" xml:space="preserve"><tspan x="1239.8926" y="272.37686"/></text>
 </g>
</svg>
