<?xml version="1.0" encoding="UTF-8" standalone="no"?>
<svg
   xmlns:dc="http://purl.org/dc/elements/1.1/"
   xmlns:cc="http://creativecommons.org/ns#"
   xmlns:rdf="http://www.w3.org/1999/02/22-rdf-syntax-ns#"
   xmlns:svg="http://www.w3.org/2000/svg"
   xmlns="http://www.w3.org/2000/svg"
   xmlns:sodipodi="http://sodipodi.sourceforge.net/DTD/sodipodi-0.dtd"
   xmlns:inkscape="http://www.inkscape.org/namespaces/inkscape"
   width="1298.2704"
   height="1127.7334"
   version="1.1"
   viewBox="0 0 1298.2704 1127.7334"
   id="svg48"
   sodipodi:docname="icon_no_campaign.svg"
   style="enable-background:new"
   inkscape:version="0.92.2 (5c3e80d, 2017-08-06)">
  <defs
     id="defs52" />
  <sodipodi:namedview
     pagecolor="#ffffff"
     bordercolor="#666666"
     borderopacity="1"
     objecttolerance="10"
     gridtolerance="10"
     guidetolerance="10"
     inkscape:pageopacity="0"
     inkscape:pageshadow="2"
     inkscape:window-width="1920"
     inkscape:window-height="1017"
     id="namedview50"
     showgrid="false"
     fit-margin-top="0"
     fit-margin-left="0"
     fit-margin-right="0"
     fit-margin-bottom="0"
     inkscape:zoom="0.5135078"
     inkscape:cx="941.95681"
     inkscape:cy="769.43172"
     inkscape:window-x="1912"
     inkscape:window-y="-8"
     inkscape:window-maximized="1"
     inkscape:current-layer="g46" />
  <metadata
     id="metadata2">
    <rdf:RDF>
      <cc:Work
         rdf:about="">
        <dc:format>image/svg+xml</dc:format>
        <dc:type
           rdf:resource="http://purl.org/dc/dcmitype/StillImage" />
        <dc:title></dc:title>
      </cc:Work>
    </rdf:RDF>
  </metadata>
  <g
     id="g884"
     transform="translate(85.374676,-86.553307)">
    <g
       id="g46"
       transform="rotate(30,2786.2915,-5475.8116)"
       style="fill:none;stroke:#d48f2a;stroke-width:12;stroke-linecap:round;stroke-linejoin:round">
      <g
         id="g16"
         style="stroke:#e5ba7b">
        <path
           id="path4"
           d="m -3367.7,-1101.5 -139.47,80.523 -139.47,-80.523 v -161.05 l 139.47,-80.523 139.47,80.523 z"
           transform="scale(-1)"
           inkscape:connector-curvature="0" />
        <path
           id="path6"
           d="m 3366.7,618.89 139.47,-80.523 139.47,80.523 V 779.94 L 3506.17,860.463 3366.7,779.94 Z"
           inkscape:connector-curvature="0" />
        <path
           id="path8"
           d="m 3785.9,1343.1 139.47,-80.523 139.47,80.523 v 161.05 l -139.47,80.523 -139.47,-80.523 z"
           inkscape:connector-curvature="0" />
        <path
           id="path10"
           d="m 4202,1102 139.47,-80.523 139.47,80.523 v 161.05 L 4341.47,1343.573 4202,1263.05 Z"
           inkscape:connector-curvature="0" />
        <path
           id="path12"
           d="m 4202.4,618.89 139.47,-80.523 139.47,80.523 V 779.94 L 4341.87,860.463 4202.4,779.94 Z"
           inkscape:connector-curvature="0" />
        <path
           id="path14"
           d="m 3785.1,377.32 139.47,-80.523 139.47,80.523 V 538.37 L 3924.57,618.893 3785.1,538.37 Z"
           inkscape:connector-curvature="0" />
      </g>
      <g
         id="g20"
         aria-label="?"
         style="fill:#e5ba7b;stroke:none">
        <path
           id="path18"
           d="m 3927.1535,1005.721 q -11,-19.05257 -11.7264,-33.64425 -0.4379,-14.75833 7.9306,-29.59767 3.7736,-6.79745 8.702,-14.2617 4.7616,-7.75275 7.8239,-16.44864 3.0623,-8.6959 2.9374,-18.24624 0.1635,-9.71685 -6.0033,-20.39815 -5.5,-9.52628 -12.9641,-14.45448 -7.1754,-5.09491 -15.3268,-6.54672 -8.3181,-1.74086 -16.8686,0.11665 -8.2616,1.69057 -15.7674,6.02407 -15.5885,9 -23.0012,24.82675 -7.291,15.37161 -6.475,31.45111 l -18.568,-0.82675 q -1.125,-11.28199 1.2258,-21.87684 2.3509,-10.59491 7.4783,-19.71322 5.2495,-9.57416 12.8655,-17.05035 7.7379,-7.93158 17.2642,-13.43158 10.6807,-6.1665 22.7846,-8.5359 11.9372,-2.65804 23.7316,-0.22958 12.0829,2.26156 22.702,9.98701 10.9074,7.55901 18.9074,21.41541 6.6665,11.54672 7.8694,21.6302 1.3247,9.62753 -0.8267,18.56802 -2.1515,8.94018 -6.8685,17.43742 -4.5949,8.04148 -9.4782,16.24937 -3.5295,5.88673 -6.3146,11.72868 -2.9522,5.55342 -3.8716,12.62758 -1.0861,6.78542 0.6043,15.04672 1.9793,8.09485 7.9793,18.48715 z m 33.9553,58.1454 -17.8335,-30.8885 17.0321,-9.8335 17.8335,30.8885 z"
           inkscape:connector-curvature="0"
           style="fill:#e5ba7b" />
      </g>
      <g
         id="g24"
         transform="matrix(1.1767,0,0,1.1767,3733.3,427.42)">
        <path
           id="path22"
           d="m 214.58753,12.885932 c 18.0225,31.215886 11.83663,68.527648 -13.81504,83.337648 -25.65167,14.81 -61.05754,1.511238 -79.08004,-29.704648 -18.0225,-31.215886 -5.34746,-116.528072 -5.34746,-116.528072 0,0 80.22054,31.680052 98.24254,62.895072 z"
           inkscape:connector-curvature="0"
           style="fill:#ffd742;fill-opacity:0.57224001;stroke:#e5ba7b;stroke-width:8;stroke-linecap:round;stroke-linejoin:round" />
      </g>
      <g
         id="g28"
         transform="matrix(1.1767,0,0,1.1767,3733.3,1391.7)">
        <path
           id="path26"
           d="m 214.58753,12.885932 c 18.0225,31.215886 11.83663,68.527648 -13.81504,83.337648 -25.65167,14.81 -61.05754,1.511238 -79.08004,-29.704648 -18.0225,-31.215886 -5.34746,-116.528072 -5.34746,-116.528072 0,0 80.22054,31.680052 98.24254,62.895072 z"
           inkscape:connector-curvature="0"
           style="fill:#ffd742;fill-opacity:0.57224001;stroke:#e5ba7b;stroke-width:8;stroke-linecap:round;stroke-linejoin:round" />
      </g>
      <g
         id="g32"
         transform="matrix(1.1767,0,0,1.1767,4150.6,669.45)">
        <path
           id="path30"
           d="m 214.58753,12.885932 c 18.0225,31.215886 11.83663,68.527648 -13.81504,83.337648 -25.65167,14.81 -61.05754,1.511238 -79.08004,-29.704648 -18.0225,-31.215886 -5.34746,-116.528072 -5.34746,-116.528072 0,0 80.22054,31.680052 98.24254,62.895072 z"
           inkscape:connector-curvature="0"
           style="fill:#ffd742;fill-opacity:0.57224001;stroke:#e5ba7b;stroke-width:8;stroke-linecap:round;stroke-linejoin:round" />
      </g>
      <g
         id="g36"
         transform="matrix(1.1767,0,0,1.1767,3315.3,669.45)">
        <path
           id="path34"
           d="m 214.58753,12.885932 c 18.0225,31.215886 11.83663,68.527648 -13.81504,83.337648 -25.65167,14.81 -61.05754,1.511238 -79.08004,-29.704648 -18.0225,-31.215886 -5.34746,-116.528072 -5.34746,-116.528072 0,0 80.22054,31.680052 98.24254,62.895072 z"
           inkscape:connector-curvature="0"
           style="fill:#ffd742;fill-opacity:0.57224001;stroke:#e5ba7b;stroke-width:8;stroke-linecap:round;stroke-linejoin:round" />
      </g>
      <g
         id="g40"
         transform="matrix(1.1767,0,0,1.1767,4150.6,1150.3)">
        <path
           id="path38"
           d="m 214.58753,12.885932 c 18.0225,31.215886 11.83663,68.527648 -13.81504,83.337648 -25.65167,14.81 -61.05754,1.511238 -79.08004,-29.704648 -18.0225,-31.215886 -5.34746,-116.528072 -5.34746,-116.528072 0,0 80.22054,31.680052 98.24254,62.895072 z"
           inkscape:connector-curvature="0"
           style="fill:#ffd742;fill-opacity:0.57224001;stroke:#e5ba7b;stroke-width:8;stroke-linecap:round;stroke-linejoin:round" />
      </g>
      <g
         id="g44"
         transform="matrix(1.1767,0,0,1.1767,3313.5,1150.3)">
        <path
           id="path42"
           d="m 214.58753,12.885932 c 18.0225,31.215886 11.83663,68.527648 -13.81504,83.337648 -25.65167,14.81 -61.05754,1.511238 -79.08004,-29.704648 -18.0225,-31.215886 -5.34746,-116.528072 -5.34746,-116.528072 0,0 80.22054,31.680052 98.24254,62.895072 z"
           inkscape:connector-curvature="0"
           style="fill:#ffd742;fill-opacity:0.57224001;stroke:#e5ba7b;stroke-width:8;stroke-linecap:round;stroke-linejoin:round" />
      </g>
    </g>
  </g>
</svg>
