<svg id="Cloud_computing" data-name="Cloud computing" xmlns="http://www.w3.org/2000/svg" viewBox="0 0 250 250"><defs><style>.cls-1{fill:#fff;}.cls-2{fill:#a65893;}</style></defs><title>logo-woo-sq-full</title><rect class="cls-1" x="47.48" y="62.45" width="157.3" height="75.65" rx="12.37"/><g id="_0Yo8Bo" data-name="0Yo8Bo"><path class="cls-2" d="M152,156.9a4.61,4.61,0,0,1-.51-.22l-20.27-11.3c-2.29-1.28-4.59-2.54-6.92-3.75a3.5,3.5,0,0,0-1.57-.35c-4.86,0-9.72-.05-14.57-.06q-24,0-48,0a15.26,15.26,0,0,1-14.68-12.47,14,14,0,0,1-.22-2.51q0-25.5,0-51A15.08,15.08,0,0,1,59.75,59.93h133a17.72,17.72,0,0,1,4.92.42A14.88,14.88,0,0,1,208.84,72a13.89,13.89,0,0,1,.28,3.09c0,17.09-.05,34.19,0,51.29A15.28,15.28,0,0,1,197,141a14,14,0,0,1-2.89.25q-23.31,0-46.63,0c-.44,0-.88,0-1.48.06.15.51.24.91.39,1.28q2.72,6.7,5.45,13.39c.1.27.19.54.28.8Zm-50.3-49.5c-.13-.09-.21-.11-.23-.16-.29-.76-.57-1.51-.84-2.28a129.2,129.2,0,0,1-4.89-18.55,14.3,14.3,0,0,0-1.16-3.89,4.85,4.85,0,0,0-7.86-1.24A10.49,10.49,0,0,0,85,83.5c-2.51,4.67-5,9.38-7.44,14.07-2.3,4.35-4.58,8.71-6.88,13.06a6.4,6.4,0,0,1-.49.66c-.12-.47-.21-.78-.28-1.09-.43-1.86-.91-3.71-1.28-5.58-1.15-5.9-2.3-11.8-3.37-17.71-.66-3.63-1.18-7.28-1.77-10.91-.45-2.8-1.87-4.33-4.58-4.62a6,6,0,0,0-5.67,2.07A5.77,5.77,0,0,0,52,77.91c.16,1.29.4,2.56.62,3.83,1.12,6.53,2.19,13.07,3.4,19.58s2.63,13.06,4.44,19.48c.84,3,1.86,5.92,2.88,8.85A8.32,8.32,0,0,0,65.59,133a3,3,0,0,0,2.85.81,6.43,6.43,0,0,0,3.07-1.77,25.59,25.59,0,0,0,4.27-5.51c1.26-2.18,2.46-4.41,3.6-6.66,2.65-5.22,5.25-10.47,7.87-15.7.13-.25.28-.48.45-.76a2.06,2.06,0,0,1,.2.32c.11.33.22.67.32,1a81.74,81.74,0,0,0,7.38,17.48,49.65,49.65,0,0,0,6.51,8.81,9.85,9.85,0,0,0,3.5,2.56,4.86,4.86,0,0,0,2.94.28,4.44,4.44,0,0,0,3-2.37,6.93,6.93,0,0,0,.87-3.34c0-3.53,0-7.06.13-10.58a102.81,102.81,0,0,1,1-10.52c.62-4.88,1.4-9.73,2.38-14.54a68,68,0,0,1,3.86-13.11c.42-1,.9-1.93,1.31-2.92a5.23,5.23,0,0,0,.42-2.65,5.85,5.85,0,0,0-4.73-5.15,5.3,5.3,0,0,0-6.07,2.52,44.13,44.13,0,0,0-2.32,4.8,92.87,92.87,0,0,0-5.24,20.34c-.47,3-.81,6-1.21,9C101.88,106.05,101.77,106.7,101.67,107.4Zm99.38-9.24a29.25,29.25,0,0,0-1.78-11,17.48,17.48,0,0,0-6.39-8.47,17,17,0,0,0-11.34-2.78,16,16,0,0,0-10.11,4.85,31.43,31.43,0,0,0-7.25,11.82,34.39,34.39,0,0,0-2,14.88,28.23,28.23,0,0,0,2,8.65,16.68,16.68,0,0,0,6.2,7.77,17.09,17.09,0,0,0,9.56,2.74,16,16,0,0,0,8.9-2.58,20.49,20.49,0,0,0,5.56-5.5A35.73,35.73,0,0,0,201.05,98.16ZM159,97.5c-.09-1.28-.16-2.57-.27-3.86a22.75,22.75,0,0,0-2.23-8.08,16.47,16.47,0,0,0-17.15-9.64,15.43,15.43,0,0,0-9.21,4.14A30.73,30.73,0,0,0,122,92.78a36,36,0,0,0-2,13.15,29,29,0,0,0,1.4,8.47,19.09,19.09,0,0,0,4.4,7.46,17.14,17.14,0,0,0,18.71,3.38,19,19,0,0,0,7.88-6.86A36.21,36.21,0,0,0,159,97.5Z"/><path class="cls-2" d="M189.45,98.12a23.51,23.51,0,0,1-2.74,11,13.37,13.37,0,0,1-3.66,4.22,7.2,7.2,0,0,1-2.77,1.33,3.64,3.64,0,0,1-3.47-1,8.39,8.39,0,0,1-2-3.39,19.4,19.4,0,0,1,.68-14.81,21.64,21.64,0,0,1,3.05-5,8.67,8.67,0,0,1,3.22-2.6,4.16,4.16,0,0,1,5.16,1.41,13.45,13.45,0,0,1,1.91,4.12A15.47,15.47,0,0,1,189.45,98.12Z"/><path class="cls-2" d="M147.4,98.3a23.51,23.51,0,0,1-2.7,10.63,12.78,12.78,0,0,1-4,4.56,7,7,0,0,1-2.54,1.16,3.76,3.76,0,0,1-3.74-1.28,9.31,9.31,0,0,1-1.81-3.29,19.35,19.35,0,0,1,.53-14.1,19.59,19.59,0,0,1,4.27-6.65,7.31,7.31,0,0,1,2.5-1.63,4.14,4.14,0,0,1,4.83,1.43,14,14,0,0,1,2.3,5.71C147.25,96,147.29,97.15,147.4,98.3Z"/></g><path d="M78.39,166.41H88.53c1.23,5.4,2.35,10.81,3.47,16.25.36-1.79.71-3.59,1.09-5.38s.79-3.64,1.2-5.46.84-3.59,1.27-5.41h10.49q2,14.94,4,29.94h-8c-.35-3.38-.7-6.73-1-10.07s-.69-6.69-1.09-10h-.13q-2.43,10-4.88,20.09H89.45q-2.55-10-5.13-20.15h-.13c-.69,6.69-1.34,13.4-2,20.08-.48.13-6.85.16-7.56,0C74.49,195.78,78.21,167.14,78.39,166.41Z"/><path d="M128.62,182.64c1.07-5.43,2.29-10.82,3.61-16.22h10.44c1.34,10,2.68,19.91,4,30-2.69,0-5.3,0-8,0q-1.06-10.12-2.13-20.19h-.12q-2.43,10.06-4.88,20.16h-5.46q-2.56-10-5.12-20.11h-.16l-2,20a67.37,67.37,0,0,1-7.56.06c-.08-.59,3.2-26.92,3.72-29.83.44-.14,9-.19,10.22-.06C126.42,171.8,127.52,177.21,128.62,182.64Z"/><path d="M73.81,181.23a21,21,0,0,1-1.55,8.7,11.24,11.24,0,0,1-5.44,5.92,13.47,13.47,0,0,1-6.56,1.26,17.25,17.25,0,0,1-3.58-.5,11,11,0,0,1-7.23-6.05A18.89,18.89,0,0,1,47.7,184a30.57,30.57,0,0,1,0-5.66,16.45,16.45,0,0,1,2.09-7,11.18,11.18,0,0,1,8.45-5.57,16,16,0,0,1,6.38.34A11.21,11.21,0,0,1,72.41,173a20.4,20.4,0,0,1,1.4,7.33C73.82,180.59,73.81,180.91,73.81,181.23Zm-17.67.55c.06.89.11,2.08.22,3.26a8.92,8.92,0,0,0,.68,3,3.57,3.57,0,0,0,3.12,2.28,3.88,3.88,0,0,0,3.64-1.67,5.4,5.4,0,0,0,.82-1.91,24.28,24.28,0,0,0,.57-6,17.06,17.06,0,0,0-.57-4.6,6.64,6.64,0,0,0-1.25-2.47,3.67,3.67,0,0,0-5.77.34,6.47,6.47,0,0,0-.89,2A23,23,0,0,0,56.14,181.78Z"/><path d="M167.85,166.41c.2,0,.4,0,.61,0,3.08,0,6.15,0,9.23,0a15.83,15.83,0,0,1,6.74,1.4,8.54,8.54,0,0,1,4.34,4.12,8.21,8.21,0,0,1-3.45,10.62l-.65.36,6.43,13.45h-8.54l-6.49-13.46-.14,0c-.05.86,0,1.74,0,2.61v10.73c-.49.14-7.21.18-8,.06C167.74,195.84,167.72,167.11,167.85,166.41Zm8.07,5.77a58.16,58.16,0,0,0,.05,7.14c.73-.09,1.46-.15,2.19-.26a4.87,4.87,0,0,0,1.83-.7,2.53,2.53,0,0,0,1.09-1.44,3.45,3.45,0,0,0-2.3-4.34A10.4,10.4,0,0,0,175.92,172.18Z"/><path d="M220.6,184.47V190c.69.06,1.38,0,2.07,0h6.19v6.29c-.46.14-14.84.2-16.26.07l0,0s0,0,0-.05q0-14.61,0-29.21v-.65c5.47,0,10.88,0,16.29,0a52,52,0,0,1,0,6.39H220.6v5.48c2.35,0,4.69,0,7.08,0v6.2Z"/><path d="M165.42,190v6.28c-.46.13-15.57.17-16.36,0V166.51c5.41-.17,10.84,0,16.32-.08v6.36c-1.37.08-2.74,0-4.11.05h-4.09v5.48c2.35,0,4.69,0,7.08,0v6.21c-2.34,0-4.68,0-7.1,0,0,1.83,0,3.62,0,5.48Z"/><path d="M45.82,189.31v7.13c-.37.09-.75.21-1.14.29a16.44,16.44,0,0,1-11.26-1.42,14.26,14.26,0,0,1-7.48-10.14,17.54,17.54,0,0,1,.27-9.07A14.29,14.29,0,0,1,37.29,166a18.9,18.9,0,0,1,7.89,0,6,6,0,0,1,.64.16v7.06c-.17,0-.32,0-.48,0-1-.16-1.92-.37-2.88-.47a6.84,6.84,0,0,0-7.4,4.21,10.38,10.38,0,0,0,.13,9.05,6.77,6.77,0,0,0,6.21,3.95,13.34,13.34,0,0,0,3.72-.44Z"/><path d="M210.16,166.16v7.11l-1-.21a13.72,13.72,0,0,0-4-.37,6.66,6.66,0,0,0-5,3,9.51,9.51,0,0,0-1.63,6,10,10,0,0,0,.88,4.07,7,7,0,0,0,6.31,4.23,13,13,0,0,0,3.78-.44l.61-.14a51.65,51.65,0,0,1,0,7.17c-.56.12-1.16.26-1.76.35a16.59,16.59,0,0,1-10.06-1.3,14.15,14.15,0,0,1-7.74-9.43,17.75,17.75,0,0,1,.06-10.11,14.27,14.27,0,0,1,10.83-10,19.16,19.16,0,0,1,8.39,0C209.92,166.08,210,166.12,210.16,166.16Z"/></svg>