<?xml version="1.0" encoding="UTF-8"?>
<svg width="2020.5" height="566.08" enable-background="new" version="1.1" viewBox="0 0 2020.5 566.08" xmlns="http://www.w3.org/2000/svg" xmlns:cc="http://creativecommons.org/ns#" xmlns:dc="http://purl.org/dc/elements/1.1/" xmlns:rdf="http://www.w3.org/1999/02/22-rdf-syntax-ns#">
 <defs>
  <filter id="filter964" color-interpolation-filters="sRGB">
   <feBlend in2="BackgroundImage" mode="hard-light"/>
  </filter>
 </defs>
 <metadata>
  <rdf:RDF>
   <cc:Work rdf:about="">
    <dc:format>image/svg+xml</dc:format>
    <dc:type rdf:resource="http://purl.org/dc/dcmitype/StillImage"/>
    <dc:title/>
   </cc:Work>
  </rdf:RDF>
 </metadata>
 <g transform="translate(-530.33 -88.52)">
  <g transform="matrix(1.0492 -.20394 .20394 1.0492 1862.7 -25.607)" enable-background="new" fill="#f0f0f0" opacity=".99" stroke="#54281f" stroke-width="8">
   <path d="m283.47 283.09s19.706-101.27-48.227-124.41c-14.337-4.8854-40.98 25.939-42.572 60.868-1.8126 39.761 25.646 102.89 32.912 105.59 6.6817 2.4902 22.112-6.025 33.578-14.153 20.356-14.43 24.309-27.896 24.309-27.896z"/>
   <path d="m214.61 328.87s-57.08-113.6-127.88-101.84c-14.942 2.4824-23.822 42.246-8.6921 73.768 17.222 35.883 51.333 53.522 64.014 59.201 22.894 10.254 75.69-18.059 72.557-31.128z"/>
  </g>
  <g transform="matrix(.855 .23711 -.23711 .855 2213.3 -143.38)" enable-background="new">
   <ellipse transform="rotate(-13.76)" cx="303.81" cy="403.78" rx="18.025" ry="12.915" fill="#54281f"/>
   <path d="m390.55 310.65s-40.849 11.981-49.5 71.411" fill="none" stroke="#54281f" stroke-width="6"/>
  </g>
  <path d="m2312.4 234.7a200.82 200.82 0 0 0-32.206 2.6887c-69.74 199.46 74.049 359.76 105.87 384.89a200.82 200.82 0 0 0 56.106-33.802c-157.63-136.87-129.03-310.57-106.62-352.31a200.82 200.82 0 0 0-23.148-1.4719zm-85.083 19.159a200.82 200.82 0 0 0-62.418 45.749c-58.461 172.35 27.518 281.32 65.1 318.84a200.82 200.82 0 0 0 82.401 17.881 200.82 200.82 0 0 0 2.6041-0.0922c-143.77-141.7-112.49-352.45-87.688-382.38zm-68.275 52.037a200.82 200.82 0 0 0-0.4187 0.4943c0.1394-0.1651 0.279-0.32965 0.4187-0.4943z" enable-background="new" fill="#54281f" stroke="#54281f" stroke-width="8.5503"/>
  <path d="m2335.7 235.91c-22.445 41.291-51.512 215.58 106.69 352.77 45.03-38.144 71.032-94.142 71.118-153.16-0.035-49.279-18.16-96.83-50.938-133.63-32.778-36.797-77.926-60.278-126.87-65.985zm-55.419 1.2596c-15.995 2.1015-37.749 9.3159-52.213 15.846-24.919 26.572-58.3 240.35 87.181 383.46 24.342-0.32278 48.423-5.0626 71.072-13.989-31.345-24.521-176.14-185.25-106.04-385.32zm-115.2 61.942c-34.451 37.083-53.651 85.794-53.768 136.41 0.1101 79.252 46.753 151.05 119.12 183.36-37.396-37.166-124.37-146.49-65.352-319.77z" enable-background="new" fill="#ffd742" stroke="#54281f" stroke-width="8.5503"/>
  <g fill="#54281f">
   <ellipse transform="rotate(-9.2823)" cx="2301.2" cy="717.21" rx="16.452" ry="35.96" enable-background="new"/>
   <ellipse transform="rotate(-4.8218)" cx="2398" cy="544.77" rx="10.849" ry="23.714" enable-background="new"/>
   <path d="m2445.8 190.03a13.804 19.265 68.332 0 1-12.807 19.942 13.804 19.265 68.332 0 1-23-5.7151 13.804 19.265 68.332 0 1 12.807-19.942 13.804 19.265 68.332 0 1 23 5.7151z" enable-background="new"/>
   <path d="m2421.7 185.51c-0.505 0-1.0023 0.12755-1.4508 0.36094 0 0-37.509 19.111-44.826 72.632-0.367 2.6363-0.2851 16.882 1.4927 17.762 1.085 0.5368 3.429-6.2181 4.8617-16.893 6.9524-50.852 41.347-67.768 41.347-67.768 3.0803-1.4897 1.9979-6.1226-1.4239-6.0933z" color="#000000" color-rendering="auto" dominant-baseline="auto" enable-background="accumulate" image-rendering="auto" shape-rendering="auto" solid-color="#000000" style="font-feature-settings:normal;font-variant-alternates:normal;font-variant-caps:normal;font-variant-ligatures:normal;font-variant-numeric:normal;font-variant-position:normal;isolation:auto;mix-blend-mode:normal;shape-padding:0;text-decoration-color:#000000;text-decoration-line:none;text-decoration-style:solid;text-indent:0;text-orientation:mixed;text-transform:none;white-space:normal"/>
  </g>
 </g>
 <g transform="translate(-530.33 -88.52)" opacity=".447">
  <g transform="rotate(180 1884.6 110.77)"></g>
 </g>
 <g transform="translate(-530.33 -88.52)" filter="url(#filter964)" opacity=".5">
  <path d="m2512.3 453.67c-43.828 100.11-153.69 122.74-228.09 117.99-97.805-6.2404-157.57-60.969-157.57-60.969 0.1758 0.65361 0.3597 1.3024 0.5414 1.9524 31.126 74.825 104.18 123.61 185.22 123.69 50.103-0.0213 98.388-18.772 135.37-52.569 36.987-33.797 60.004-80.2 64.532-130.1z" enable-background="new" fill="#54281f" filter="url(#filter1001)" opacity="1"/>
 </g>
 <g transform="translate(-530.33 -88.52)">
  <g transform="matrix(.97385 0 0 .97385 -395.77 1376.4)">
   <g fill="#54281f">
    <path d="m1919-876.63h73.684l4.9009-11.154c9.1598 7.8754 18.32 14.737 43.23 14.737 46.17 0 74.664-33.732 75.644-84.161 0.9802-43.872-25.553-85.784-75.34-85.784-16.021 0-35.693 6.8614-42.892 15.379v-94.639h-79.227v42.892h13.723v160.14h-13.723zm125.4-79.903c0 24.877-9.4977 40.932-23.254 40.932-12.438 0-23.558-17.035-23.558-39.309-1.3182-25.857 10.478-41.912 23.254-41.912 14.399 0 23.558 20.618 23.558 40.289z"/>
    <path d="m2268.8-931.01c-17.711 14.737-34.712 15.717-45.866 15.717-27.513 0-31.772-18.015-33.732-26.837h103.16c6.8952-18.657 3.2786-43.872-0.6422-55.364-9.4977-27.479-39.309-47.455-78.28-47.455-49.449 0-88.082 31.738-88.082 85.446 0 62.901 45.832 88.758 86.46 88.758 34.036 0 60.231-7.5374 84.466-28.493zm-78.618-43.534c0.676-8.2133 5.239-26.195 25.215-26.195 20.956 0 23.93 13.723 24.234 26.195z"/>
    <path d="m2446.6-931.01c-17.677 14.737-34.712 15.717-45.832 15.717-27.513 0-31.772-18.015-33.732-26.837h103.16c6.8613-18.657 3.2786-43.872-0.676-55.364-9.4978-27.479-39.275-47.455-78.246-47.455-49.449 0-88.082 31.738-88.082 85.446 0 62.901 45.832 88.758 86.426 88.758 34.07 0 60.265-7.5374 84.5-28.493zm-78.584-43.534c0.6422-8.2133 5.2389-26.195 25.215-26.195 20.956 0 23.896 13.723 24.234 26.195z"/>
   </g>
   <g fill="#d48f2a">
    <path d="m1094.4-876.63h-22.274v-95.315c0-19.435-3.3799-33.935-10.14-43.534-6.5571-9.6329-16.258-14.432-29.135-14.432-6.3205 0-12.675 1.3182-18.995 3.9208-6.1178 2.4336-11.898 5.8136-17.373 10.174-5.4418 4.3602-10.241 9.4978-14.399 15.379-3.9208 5.915-6.8614 12.337-8.8556 19.334v104.48h-22.24v-239.07h22.24v107.08c6.7938-12.878 16.156-23.018 28.189-30.454 11.999-7.4359 24.978-11.12 38.971-11.12 9.8019 0 18.117 1.8252 24.877 5.5431 6.7599 3.5152 12.337 8.5176 16.697 15.075 4.3602 6.3206 7.5373 14.094 9.4977 23.254 1.9604 8.9569 2.9406 18.894 2.9406 29.778z"/>
    <path d="m1215.9-873.38c-12.438 0-23.93-2.2646-34.408-6.8614-10.241-4.7996-19.198-11.255-26.837-19.333-7.6388-8.281-13.655-17.779-18.015-28.493-4.1574-10.681-6.2192-22.139-6.2192-34.374 0-11.999 2.0618-23.254 6.2192-33.732 4.3602-10.681 10.275-19.976 17.677-27.817 7.6387-8.0781 16.697-14.432 27.175-18.996 10.478-4.7995 21.835-7.1993 34.07-7.1993 12.438 0 23.795 2.3998 34.07 7.1993 10.478 4.563 19.435 10.917 26.837 18.996 7.436 8.0781 13.216 17.339 17.373 27.817 4.1236 10.478 6.2192 21.632 6.2192 33.394v5.239c0 1.7576-0.1352 2.9744-0.338 3.6166h-146.05c0.6422 9.1597 2.7378 17.677 6.2191 25.553 3.718 7.6388 8.4162 14.297 14.094 19.976 5.6446 5.6784 12.1 10.14 19.3 13.418 7.436 3.042 15.278 4.5968 23.592 4.5968 5.4418 0 10.917-0.77739 16.359-2.2984 5.4756-1.521 10.478-3.6166 15.075-6.2192 4.5968-2.6364 8.7204-5.7798 12.438-9.4977 3.718-3.9546 6.5572-8.1796 8.5176-12.776l19.334 5.239c-2.6364 6.3206-6.3544 12.1-11.154 17.339-4.7995 5.0362-10.376 9.4977-16.697 13.452-6.3205 3.6842-13.317 6.5234-20.956 8.5175-7.6388 2.1632-15.616 3.2448-23.896 3.2448zm62.868-97.58c-0.6422-9.1597-2.8392-17.474-6.5571-24.877-3.4814-7.6387-8.0782-14.196-13.756-19.638-5.4418-5.4755-11.898-9.7343-19.3-12.776-7.2332-3.0757-14.973-4.5967-23.254-4.5967-8.3148 0-16.156 1.521-23.592 4.5967-7.4359 3.042-13.959 7.3008-19.638 12.776-5.4756 5.4418-9.9372 11.999-13.419 19.638-3.2785 7.6388-5.2389 15.92-5.9149 24.877z"/>
    <path d="m1419.9-1027.6c-15.075 0.4394-28.189 4.5968-39.309 12.438-11.12 7.8754-18.995 18.658-23.592 32.414v106.13h-22.24v-170.62h20.956v40.932c6.3206-13.114 14.838-23.356 25.519-30.792 10.714-7.436 22.173-11.12 34.408-11.12 1.7238 0 3.1434 0.1014 4.2587 0.3042z"/>
    <path d="m1490.2-873.38c-8.0781 0-15.582-1.2844-22.578-3.9208-6.76-2.8392-12.776-6.6586-18.015-11.458-5.0361-4.7996-8.9569-10.377-11.796-16.697-2.8392-6.5572-4.2588-13.554-4.2588-20.956 0-7.436 1.7576-14.297 5.239-20.652 3.5152-6.3206 8.4162-11.762 14.737-16.359 6.3543-4.5968 13.858-8.0782 22.612-10.478 8.7203-2.6364 18.319-3.9208 28.797-3.9208 8.7541 0 17.576 0.74359 26.533 2.2984 8.9569 1.521 16.934 3.6842 23.896 6.5234v-15.379c0-15.075-4.2588-26.972-12.742-35.693-8.5176-8.957-20.314-13.418-35.388-13.418-8.7203 0-17.677 1.7238-26.837 5.2389-9.1935 3.4814-18.455 8.5176-27.851 15.041l-7.8415-14.737c22.037-14.838 43.433-22.24 64.186-22.24 21.395 0 38.194 5.9825 50.429 17.982 12.202 12.033 18.32 28.628 18.32 49.787v76.962c0 6.1178 2.7377 9.1597 8.1795 9.1597v19.671c-3.6842 0.6422-6.5233 0.9802-8.4837 0.9802-5.6784 0-10.174-1.4196-13.452-4.2588-3.0419-2.8392-4.6981-6.7938-4.9009-11.796l-0.6422-13.419c-7.8753 10.241-17.812 18.117-29.811 23.558-11.796 5.4756-24.572 8.1795-38.329 8.1795zm5.239-17.001c11.593 0 22.173-2.197 31.772-6.5572 9.8357-4.3602 17.238-10.14 22.274-17.373 1.9603-1.9604 3.3799-4.0222 4.2587-6.2192 1.0816-2.3998 1.6224-4.563 1.6224-6.5572v-27.817c-7.4021-2.8392-15.142-5.0362-23.22-6.5572-7.8754-1.521-15.954-2.2984-24.234-2.2984-15.717 0-28.493 3.2786-38.329 9.8357-9.8358 6.5572-14.737 15.176-14.737 25.857 0 5.239 0.9802 10.174 2.9406 14.737 2.1969 4.5968 5.0361 8.6527 8.5175 12.134 3.718 3.2786 8.0782 5.8812 13.114 7.8416 5.0024 1.9942 10.343 2.9744 16.021 2.9744z"/>
    <path d="m1626.7-1115.7h22.274v200.4c0 6.3544 1.7238 11.357 5.239 15.075 3.4814 3.4814 8.3824 5.239 14.737 5.239 2.3998 0 5.239-0.338 8.5176-0.98019 3.2448-0.6422 6.3205-1.521 9.1597-2.6364l3.9208 18.015c-4.1574 1.7576-9.2611 3.1772-15.379 4.2588-5.915 1.1154-11.019 1.6562-15.413 1.6562-10.241 0-18.32-2.8392-24.234-8.5175-5.8812-5.915-8.8218-14.094-8.8218-24.572z"/>
    <path d="m1784.7-873.38c-11.762 0-22.68-2.3998-32.718-7.1994-10.072-5.0024-18.691-11.56-25.891-19.638-7.1993-8.0781-12.878-17.373-17.035-27.851-3.9208-10.681-5.8812-21.801-5.8812-33.394 0-11.999 1.9604-23.356 5.8812-34.036 3.9545-10.917 9.2949-20.415 16.055-28.493 6.9966-8.0781 15.176-14.432 24.572-18.996 9.5991-4.7995 20.077-7.1993 31.434-7.1993 14.399 0 27.175 3.8194 38.295 11.458 11.154 7.4022 19.874 16.46 26.229 27.175v-104.14h22.24v210.23c0 6.1178 2.6364 9.1597 7.8754 9.1597v19.671c-3.2786 0.6422-5.8811 0.9802-7.8754 0.9802-5.2389 0-9.8019-1.6562-13.723-4.9348-3.9545-3.4814-5.9149-7.6387-5.9149-12.438v-16.697c-6.76 11.12-15.92 19.976-27.513 26.533-11.56 6.5572-23.558 9.8019-36.031 9.8019zm4.9348-19.638c5.4418 0 11.222-1.0816 17.339-3.2786 6.3543-2.1632 12.236-5.1376 17.711-8.8217 5.4417-3.9546 10.038-8.4161 13.723-13.452 3.9546-5.239 6.3544-10.782 7.2332-16.697v-52.728c-2.197-5.8812-5.3742-11.323-9.4978-16.359-4.1573-5.239-8.9569-9.8358-14.432-13.756-5.239-3.9208-10.917-6.9966-17.001-9.1598-6.1178-2.197-12.134-3.2786-18.015-3.2786-9.1935 0-17.474 1.9604-24.91 5.8812-7.4022 3.9546-13.858 9.1935-19.3 15.717-5.2389 6.3544-9.2949 13.655-12.134 21.936-2.8392 8.3147-4.2588 16.832-4.2588 25.553 0 9.1597 1.6562 17.914 4.9348 26.195 3.2448 8.3148 7.7402 15.615 13.418 21.936 5.6784 6.1178 12.337 11.053 19.976 14.737 7.8415 3.718 16.258 5.577 25.215 5.577z"/>
   </g>
  </g>
 </g>
</svg>
