<?xml version="1.0" encoding="utf-8"?>
<!-- Generator: Adobe Illustrator 23.0.3, SVG Export Plug-In . SVG Version: 6.00 Build 0)  -->
<svg version="1.1" id="Warstwa_1" xmlns="http://www.w3.org/2000/svg" xmlns:xlink="http://www.w3.org/1999/xlink" x="0px" y="0px"
	 viewBox="0 0 2500 970" style="enable-background:new 0 0 2500 970;" xml:space="preserve">
<path d="M1463.3,342.1c-31.4,0-56.1,6.7-80.8,20.2c0-71.9,0-137,2.3-159.4l-150.5,26.9v13.5l15.7,2.2c20.2,4.5,27,15.7,31.4,42.7
	c4.5,53.9,2.3,341.4,0,388.5c40.4,9,83.1,15.7,125.8,15.7c119,0,190.9-74.1,190.9-190.9C1598.1,409.5,1539.7,342.1,1463.3,342.1
	L1463.3,342.1z M1411.7,667.8c-9,0-20.2,0-27-2.2c-2.3-31.4-4.5-164-2.3-280.7c13.5-4.5,22.5-6.7,33.7-6.7
	c49.4,0,76.4,58.4,76.4,130.2C1492.6,598.2,1458.9,667.8,1411.7,667.8L1411.7,667.8z M668.3,211.9H273v20.2l22.5,2.2
	c29.2,4.5,40.4,22.5,44.9,65.1c6.8,80.9,4.5,226.9,0,296.4c-4.5,42.7-15.7,62.9-44.9,65.1l-22.5,4.5v18h253.8v-18l-27-4.5
	c-29.2-2.2-40.4-22.4-44.9-65.1c-2.3-29.2-4.5-76.4-4.5-134.8l53.9,2.2c33.7,0,49.4,27,56.1,65.1h20.2V369.1h-20.2
	c-6.8,38.2-22.5,65.1-56.1,65.1l-53.9,2.3c0-76.4,2.2-148.2,4.5-190.9h78.6c60.7,0,92.1,38.2,114.5,105.6l22.5-6.7L668.3,211.9
	L668.3,211.9z"/>
<path d="M796.3,337.6c112.3,0,168.5,76.4,168.5,177.4c0,96.6-62.9,177.5-175.2,177.5c-112.3,0-168.4-76.4-168.4-177.5
	C621.1,418.5,684,337.6,796.3,337.6L796.3,337.6z M789.6,360.1c-49.4,0-62.9,67.4-62.9,155c0,85.3,22.5,155,67.4,155
	c51.6,0,65.1-67.4,65.1-155C859.2,429.7,836.7,360.1,789.6,360.1z M1627.3,517.3c0-92.1,58.4-179.7,172.9-179.7
	c94.3,0,139.2,69.6,139.2,161.7h-208.9c-2.3,83.1,38.2,143.7,119,143.7c35.9,0,53.9-9,76.4-24.7l9,11.2
	c-22.5,31.4-71.9,62.9-134.7,62.9C1699.1,692.5,1627.3,620.6,1627.3,517.3L1627.3,517.3z M1730.6,474.6l105.6-2.3
	c0-44.9-6.7-112.3-44.9-112.3C1753.1,360.1,1732.8,423,1730.6,474.6z M2206.8,355.6c-27-11.2-62.9-18-103.3-18
	c-83.1,0-134.8,49.4-134.8,107.8s38.1,83.1,92.1,101.1c56.1,20.2,71.9,35.9,71.9,62.9c0,27-20.2,51.6-56.2,51.6
	c-42.7,0-74.1-24.7-98.8-92.1l-15.7,4.5l2.3,98.8c27,11.2,76.4,20.2,119,20.2c87.6,0,143.8-44.9,143.8-114.5
	c0-47.2-24.7-74.1-83.1-96.6c-62.9-24.7-85.3-40.4-85.3-69.6c0-29.2,20.2-49.4,47.2-49.4c40.4,0,67.4,24.7,87.6,85.4l15.7-4.5
	L2206.8,355.6L2206.8,355.6z M1256.7,346.6c-38.2-22.4-105.6-11.2-141.5,69.6l2.2-78.6L967,366.8v13.5l15.7,2.2
	c20.2,2.3,29.2,13.5,31.5,42.7c4.5,53.9,2.2,148.2,0,195.4c-2.3,26.9-11.2,40.4-31.5,42.7l-15.7,2.3v18h208.9v-18l-27-2.3
	c-22.5-2.3-29.2-15.7-31.5-42.7c-4.5-42.7-4.5-128-2.2-181.9c11.2-15.7,60.6-29.2,105.5,0L1256.7,346.6L1256.7,346.6z"/>
</svg>
