  <svg
      xmlns="http://www.w3.org/2000/svg"
      width="34"
      height="34"
      viewBox="0 0 34 34"
    >
      <g
        id="Group_211"
        data-name="Group 211"
        transform="translate(8728 18868)"
      >
        <circle
          id="Ellipse_62"
          data-name="Ellipse 62"
          cx="17"
          cy="17"
          r="17"
          transform="translate(-8728 -18868)"
          data-circle="true"
        />
        <g id="outline-view_list-24px" transform="translate(-8723 -18863)">
          <path fill="none" d="M0 0h24v24H0z"/>
          <path data-outline="true" d="M11 18h2v-2h-2v2zm1-16C6.48 2 2 6.48 2 12s4.48 10 10 10 10-4.48 10-10S17.52 2 12 2zm0 18c-4.41 0-8-3.59-8-8s3.59-8 8-8 8 3.59 8 8-3.59 8-8 8zm0-14c-2.21 0-4 1.79-4 4h2c0-1.1.9-2 2-2s2 .9 2 2c0 2-3 1.75-3 5h2c0-2.25 3-2.5 3-5 0-2.21-1.79-4-4-4z" />
        </g>
      </g>
    </svg>