   <svg
      xmlns="http://www.w3.org/2000/svg"
      width="34"
      height="34"
      viewBox="0 0 34 34"
    >
      <g
        id="Group_211"
        data-name="Group 211"
        transform="translate(8728 18868)"
      >
        <circle
          id="Ellipse_62"
          data-name="Ellipse 62"
          cx="17"
          cy="17"
          r="17"
          transform="translate(-8728 -18868)"
          data-circle="true"
        />
        <g id="outline-view_list-24px" transform="translate(-8723 -18863)">
          <path
            id="Path_1814"
            data-name="Path 1814"
            d="M0,0H24V24H0Z"
            fill="none"
          />
          <path
            id="Path_1815"
            data-name="Path 1815"
            d="M14,6V4H10V6ZM4,8V19H20V8ZM20,6a1.993,1.993,0,0,1,2,2V19a1.993,1.993,0,0,1-2,2H4a1.993,1.993,0,0,1-2-2L2.01,8A1.985,1.985,0,0,1,4,6H8V4a1.993,1.993,0,0,1,2-2h4a1.993,1.993,0,0,1,2,2V6Z"
            data-outline="true"
          />
        </g>
      </g>
    </svg>